<svg xmlns="http://www.w3.org/2000/svg" version="1.1" xmlns:xlink="http://www.w3.org/1999/xlink" xmlns:svgjs="http://svgjs.dev/svgjs" width="100%" height="100%" viewBox="0 0 1000 600"><rect width="1000" height="600" x="0" y="0" fill="#ffffff"/><g><rect width="333.3333333333333" height="333.3333333333333" rx="13.333333333333334" ry="13.333333333333334" y="160.49051928163453" fill="#fdff66" transform="matrix(0.9040393411636363,0,0,0.9040393411636362,0,4.237003661907863)" x="138.26832580566406"/><path d="M292.3245059999427 402.15718231080604L236.64268835451156 402.15718231080604L236.64268835451156 398.52713184072405L254.82450636118296 389.43622283738836L254.82450636118296 264.87814322918473L236.64268835451156 255.7872342258491L236.64268835451156 252.1571837557671L295.2916776885314 252.1571837557671Q319.1553138222876 252.1571837557671 332.8863742960759 262.03723416564236Q346.6490004261258 271.9172845755176 346.6490004261258 289.2152642068647L346.6490004261258 289.2152642068647Q346.6490004261258 301.93622368028235 338.00001061045225 312.0372336839887Q329.3825864510403 322.16980934395656 315.0517785082819 327.37814262711765L315.0517785082819 327.37814262711765L358.23359627412646 390.3516268689743L373.22728299837803 398.52713184072405L373.22728299837803 402.15718231080604L340.4936974551172 402.15718231080604L296.42804131394837 333.28092034803353L275.2790516186883 333.28092034803353L275.2790516186883 389.21526324355733L292.3245059999427 398.52713184072405L292.3245059999427 402.15718231080604ZM290.0517787491088 264.6571836353537L290.0517787491088 264.6571836353537L275.2790516186883 264.6571836353537L275.2790516186883 320.78092046844694L291.4091019683568 320.78092046844694Q305.73990991111515 320.78092046844694 315.17804113332824 312.73167812174347Q324.5846066992798 304.6508701187784 324.5846066992798 292.1508702391918L324.5846066992798 292.1508702391918Q324.5846066992798 279.42991076577414 315.3990007271593 272.0435472005639Q306.1818290987773 264.6571836353537 290.0517787491088 264.6571836353537Z " fill="#34342d" transform="matrix(0.9040393411636363,0,0,0.9040393411636362,0,4.237003661907863)"/><path d="M602.8073206350048 402.1571790642578L602.8073206350048 402.1571790642578Q587.7807266519901 402.1571790642578 576.9207988471564 399.5862573798482Q566.1051972782609 397.0596619313767 554.9349858218607 391.2972512594242L554.9349858218607 391.2972512594242L554.9349858218607 355.5703050933185L559.3676094156704 355.5703050933185L569.6069699173706 373.12349452480464Q579.4917205315661 390.6766839562908 601.8321434443667 390.6766839562908L601.8321434443667 390.6766839562908Q614.9083830461052 390.6766839562908 621.9562545602624 384.60398963277163Q628.9597998384817 378.5312953092524 628.9597998384817 368.02597739192356L628.9597998384817 368.02597739192356Q628.9597998384817 359.0720777324281 624.482850008734 353.79725565579463Q620.0059001789862 348.52243357916115 611.8941990023145 344.5330723447325Q603.7381715897047 340.5437111103038 592.5679601333045 335.44619397742275L592.5679601333045 335.44619397742275Q576.3002315440231 328.1323650476368 567.5236368282801 319.3557703318937Q558.747042112537 310.5791756161506 558.747042112537 294.62173067843594L558.747042112537 294.62173067843594Q558.747042112537 282.7866256829642 565.4403037391895 273.21215872033537Q572.1335653658421 263.63769175770653 582.5059045753567 257.91960732169207Q592.8782437848712 252.1571966497396 604.0484552412715 252.1571966497396L604.0484552412715 252.1571966497396Q615.8835602367433 252.1571966497396 625.9456157946911 255.03840198571584Q635.9633451167009 257.91960732169207 645.8924219668345 263.01712445457315L645.8924219668345 263.01712445457315L645.8924219668345 297.81321966597886L641.4154721370867 297.81321966597886L630.8658279838198 280.88059753762604Q620.6707937180577 264.61286894834467 605.3339160834763 264.61286894834467L605.3339160834763 264.61286894834467Q594.4739882786427 264.61286894834467 587.9580315957426 270.0206697327924Q581.3977486769043 275.4727967531783 581.3977486769043 285.0472637158071L581.3977486769043 285.0472637158071Q581.3977486769043 295.8628652847026 589.2434924379472 301.44797101290277Q597.0449099630523 307.03307674110295 612.0271777101289 314.08094825526024L612.0271777101289 314.08094825526024Q621.291361021191 318.557898085008 630.2452606806864 322.99052167881763Q639.1548341042438 327.4674715085653 645.0945497199488 335.6234989211751Q650.9899390997157 343.73520009784676 650.9899390997157 358.7617940808614L650.9899390997157 358.7617940808614Q650.9899390997157 372.813210873238 643.321500282425 382.52065654368107Q635.6530614651342 392.27242845006225 624.482850008734 397.192640639191Q613.3126385523336 402.1571790642578 602.8073206350048 402.1571790642578ZM744.4739706931609 402.1571790642578L744.4739706931609 402.1571790642578Q725.9899303069747 402.1571790642578 713.8445416599363 392.76001704538135Q701.7434792488359 383.31852879056686 701.7434792488359 364.83448840438064L701.7434792488359 364.83448840438064L701.7434792488359 270.3309533843591L681.6193681329403 260.4462027701636L681.6193681329403 255.34868563728253L727.2753911491795 255.34868563728253L727.2753911491795 349.8078944213659Q727.2753911491795 363.8593112137425 736.1849645727368 371.21746637946654Q745.1388642322324 378.5312953092524 758.8356711371041 378.5312953092524L758.8356711371041 378.5312953092524Q767.4792871450329 378.5312953092524 777.8516263545475 375.6500899732761Q788.2239655640619 372.813210873238 794.2966598875812 367.3610838528521L794.2966598875812 367.3610838528521L794.2966598875812 270.3309533843591L771.6016270872758 260.4462027701636L771.6016270872758 255.34868563728253L819.8285717879248 255.34868563728253L819.8285717879248 384.60398963277163L842.4792783522921 393.86817294383377L842.4792783522921 398.96569007671485L794.2966598875812 398.96569007671485L794.2966598875812 378.84157896081905L792.7009153938097 378.84157896081905Q780.5555267467714 390.9869676078575 769.2080103466187 396.57207333605766Q757.9048201824041 402.1571790642578 744.4739706931609 402.1571790642578ZM919.6955813564559 402.1571790642578L919.6955813564559 402.1571790642578Q904.7133136093794 402.1571790642578 893.8533858045457 399.5862573798482Q882.9934579997121 397.0596619313767 871.8232465433118 391.2972512594242L871.8232465433118 391.2972512594242L871.8232465433118 355.5703050933185L876.3001963730596 355.5703050933185L886.4952306388218 373.12349452480464Q896.4243074889553 390.6766839562908 918.764730401756 390.6766839562908L918.764730401756 390.6766839562908Q931.8409700034945 390.6766839562908 938.8445152817137 384.60398963277163Q945.8923867958708 378.5312953092524 945.8923867958708 368.02597739192356L945.8923867958708 368.02597739192356Q945.8923867958708 359.0720777324281 941.4154369661233 353.79725565579463Q936.9384871363754 348.52243357916115 928.7824597237657 344.5330723447325Q920.670758547094 340.5437111103038 909.5005470906938 335.44619397742275L909.5005470906938 335.44619397742275Q893.2328185014123 328.1323650476368 884.4562237856694 319.3557703318937Q875.6796290699262 310.5791756161506 875.6796290699262 294.62173067843594L875.6796290699262 294.62173067843594Q875.6796290699262 282.7866256829642 882.3728906965787 273.21215872033537Q889.0661523232313 263.63769175770653 899.438491532746 257.91960732169207Q909.8108307422604 252.1571966497396 920.9810421986608 252.1571966497396L920.9810421986608 252.1571966497396Q932.7718209581944 252.1571966497396 942.8338765161423 255.03840198571584Q952.8959320740901 257.91960732169207 962.7806826882857 263.01712445457315L962.7806826882857 263.01712445457315L962.7806826882857 297.81321966597886L958.3037328585381 297.81321966597886L947.7984149412091 280.88059753762604Q937.5590544395088 264.61286894834467 922.2665030408655 264.61286894834467L922.2665030408655 264.61286894834467Q911.4065752360318 264.61286894834467 904.8462923171937 270.0206697327924Q898.3303356342935 275.4727967531783 898.3303356342935 285.0472637158071L898.3303356342935 285.0472637158071Q898.3303356342935 295.8628652847026 906.1317531593984 301.44797101290277Q913.9774969204416 307.03307674110295 928.9597646675181 314.08094825526024L928.9597646675181 314.08094825526024Q938.2239479785803 318.557898085008 947.1335214021376 322.99052167881763Q956.087421061633 327.4674715085653 961.9828104413998 335.6234989211751Q967.8781998211666 343.73520009784676 967.8781998211666 358.7617940808614L967.8781998211666 358.7617940808614Q967.8781998211666 372.813210873238 960.2540872398142 382.52065654368107Q952.5856484225235 392.27242845006225 941.4154369661233 397.192640639191Q930.2452255097228 402.1571790642578 919.6955813564559 402.1571790642578Z " fill="#3d155f" transform="matrix(0.9040393411636363,0,0,0.9040393411636362,0,4.237003661907863)"/></g></svg>